<?xml version="1.0" encoding="utf-8"?>
<!-- Generator: Adobe Illustrator 24.0.0, SVG Export Plug-In . SVG Version: 6.00 Build 0)  -->
<svg version="1.1" id="Layer_1" xmlns="http://www.w3.org/2000/svg" xmlns:xlink="http://www.w3.org/1999/xlink" x="0px" y="0px"
	 viewBox="0 0 512 512" style="enable-background:new 0 0 512 512;" xml:space="preserve">
<style type="text/css">
	.st0{clip-path:url(#SVGID_2_);}
	.st1{fill:url(#SVGID_3_);}
	.st2{fill:url(#SVGID_4_);}
	.st3{fill:#FFFFFF;}
</style>
<g>
	<g>
		<defs>
			<circle id="SVGID_1_" cx="256" cy="256" r="256"/>
		</defs>
		<clipPath id="SVGID_2_">
			<use xlink:href="#SVGID_1_"  style="overflow:visible;"/>
		</clipPath>
		<g class="st0">
			
				<radialGradient id="SVGID_3_" cx="-48.8197" cy="-118.2666" r="258.9513" gradientTransform="matrix(0 -1.982 -1.8439 0 -83.4773 457.986)" gradientUnits="userSpaceOnUse">
				<stop  offset="0" style="stop-color:#FFDD55"/>
				<stop  offset="0.1" style="stop-color:#FFDD55"/>
				<stop  offset="0.5" style="stop-color:#FF543E"/>
				<stop  offset="1" style="stop-color:#C837AB"/>
			</radialGradient>
			<path class="st1" d="M256.1-3C148-3,116.3-2.9,110.2-2.4C88-0.5,74.2,3,59.1,10.5c-11.6,5.8-20.7,12.4-29.8,21.8
				c-16.4,17.1-26.4,38-30,63c-1.8,12.1-2.3,14.6-2.4,76.4c0,20.6,0,47.8,0,84.2c0,108,0.1,139.6,0.6,145.8
				c1.8,21.6,5.2,35.2,12.3,50c13.7,28.4,39.9,49.8,70.7,57.8c10.7,2.7,22.5,4.3,37.6,5c6.4,0.3,71.8,0.5,137.2,0.5
				s130.8-0.1,137.1-0.4c17.5-0.8,27.7-2.2,39-5.1c31-8,56.7-29,70.7-57.9c7-14.5,10.6-28.6,12.2-49.1c0.4-4.5,0.5-75.6,0.5-146.6
				c0-71.1-0.2-142.1-0.5-146.5c-1.6-20.8-5.2-34.8-12.5-49.6c-6-12.1-12.6-21.1-22.2-30.4C462.7,12.9,441.8,3,416.8-0.6
				c-12.1-1.7-14.5-2.3-76.4-2.4H256.1z"/>
			
				<radialGradient id="SVGID_4_" cx="158.5757" cy="19.5252" r="258.9513" gradientTransform="matrix(0.1739 0.8687 3.5818 -0.7172 -187.2853 -89.4484)" gradientUnits="userSpaceOnUse">
				<stop  offset="0" style="stop-color:#3771C8"/>
				<stop  offset="0.128" style="stop-color:#3771C8"/>
				<stop  offset="1" style="stop-color:#6600FF;stop-opacity:0"/>
			</radialGradient>
			<path class="st2" d="M256.1-3C148-3,116.3-2.9,110.2-2.4C88-0.5,74.2,3,59.1,10.5c-11.6,5.8-20.7,12.4-29.8,21.8
				c-16.4,17.1-26.4,38-30,63c-1.8,12.1-2.3,14.6-2.4,76.4c0,20.6,0,47.8,0,84.2c0,108,0.1,139.6,0.6,145.8
				c1.8,21.6,5.2,35.2,12.3,50c13.7,28.4,39.9,49.8,70.7,57.8c10.7,2.7,22.5,4.3,37.6,5c6.4,0.3,71.8,0.5,137.2,0.5
				s130.8-0.1,137.1-0.4c17.5-0.8,27.7-2.2,39-5.1c31-8,56.7-29,70.7-57.9c7-14.5,10.6-28.6,12.2-49.1c0.4-4.5,0.5-75.6,0.5-146.6
				c0-71.1-0.2-142.1-0.5-146.5c-1.6-20.8-5.2-34.8-12.5-49.6c-6-12.1-12.6-21.1-22.2-30.4C462.7,12.9,441.8,3,416.8-0.6
				c-12.1-1.7-14.5-2.3-76.4-2.4H256.1z"/>
		</g>
	</g>
	<path class="st3" d="M256,114.9c-38.3,0-43.1,0.2-58.2,0.9c-15,0.7-25.3,3.1-34.2,6.6c-9.3,3.6-17.1,8.4-25,16.3
		c-7.8,7.8-12.7,15.7-16.3,25c-3.5,9-5.9,19.2-6.6,34.2c-0.7,15-0.8,19.9-0.8,58.2s0.2,43.1,0.9,58.1c0.7,15,3.1,25.3,6.6,34.2
		c3.6,9.3,8.4,17.1,16.3,25c7.8,7.8,15.7,12.7,25,16.3c9,3.5,19.2,5.9,34.2,6.6c15,0.7,19.9,0.9,58.2,0.9c38.3,0,43.1-0.2,58.1-0.9
		c15-0.7,25.3-3.1,34.3-6.6c9.3-3.6,17.1-8.4,25-16.3c7.8-7.8,12.7-15.7,16.3-25c3.5-9,5.8-19.2,6.6-34.2c0.7-15,0.9-19.8,0.9-58.1
		s-0.2-43.1-0.9-58.2c-0.7-15-3.1-25.3-6.6-34.2c-3.6-9.3-8.4-17.1-16.3-25c-7.8-7.8-15.7-12.7-25-16.3c-9-3.5-19.2-5.9-34.3-6.6
		C299,115.1,294.2,114.9,256,114.9L256,114.9z M243.3,140.3c3.8,0,7.9,0,12.7,0c37.7,0,42.1,0.1,57,0.8c13.8,0.6,21.2,2.9,26.2,4.9
		c6.6,2.6,11.3,5.6,16.2,10.5c4.9,4.9,8,9.6,10.6,16.2c1.9,5,4.2,12.4,4.9,26.2c0.7,14.9,0.8,19.3,0.8,57s-0.1,42.1-0.8,57
		c-0.6,13.8-2.9,21.2-4.9,26.2c-2.6,6.6-5.6,11.3-10.6,16.2c-4.9,4.9-9.6,8-16.2,10.5c-5,1.9-12.4,4.2-26.2,4.9
		c-14.9,0.7-19.3,0.8-57,0.8c-37.7,0-42.1-0.1-57-0.8c-13.8-0.6-21.2-2.9-26.2-4.9c-6.6-2.6-11.3-5.6-16.2-10.5
		c-4.9-4.9-8-9.6-10.6-16.2c-1.9-5-4.2-12.4-4.9-26.2c-0.7-14.9-0.8-19.3-0.8-57s0.1-42.1,0.8-57c0.6-13.8,2.9-21.2,4.9-26.2
		c2.6-6.6,5.6-11.3,10.6-16.2c4.9-4.9,9.6-8,16.2-10.6c5-1.9,12.4-4.2,26.2-4.9C212,140.5,217,140.3,243.3,140.3L243.3,140.3z
		 M331.3,163.7c-9.3,0-16.9,7.6-16.9,16.9c0,9.3,7.6,16.9,16.9,16.9c9.3,0,16.9-7.6,16.9-16.9C348.2,171.3,340.6,163.7,331.3,163.7
		L331.3,163.7z M256,183.5c-40,0-72.4,32.4-72.4,72.4s32.4,72.4,72.4,72.4c40,0,72.4-32.4,72.4-72.4S296,183.5,256,183.5L256,183.5z
		 M256,208.9c26,0,47,21,47,47c0,26-21.1,47-47,47c-26,0-47-21.1-47-47C208.9,230,230,208.9,256,208.9z"/>
</g>
</svg>
