<?xml version="1.0" encoding="utf-8"?>
<!-- Generator: Adobe Illustrator 24.0.0, SVG Export Plug-In . SVG Version: 6.00 Build 0)  -->
<svg version="1.1" id="Layer_1" xmlns="http://www.w3.org/2000/svg" xmlns:xlink="http://www.w3.org/1999/xlink" x="0px" y="0px"
	 viewBox="0 0 512 512" style="enable-background:new 0 0 512 512;" xml:space="preserve">
<style type="text/css">
	.st0{fill-rule:evenodd;clip-rule:evenodd;fill:#1DA1F2;}
	.st1{fill-rule:evenodd;clip-rule:evenodd;fill:#FFFFFF;}
</style>
<circle class="st0" cx="255.5" cy="255.8" r="256"/>
<g id="Livello_x0020_1">
	<path class="st1" d="M431,147c-12.9,5.7-26.8,9.6-41.4,11.3c14.9-8.9,26.3-23,31.6-39.8c-13.9,8.3-29.3,14.2-45.7,17.5
		c-13.1-14-31.8-22.7-52.6-22.7c-39.7,0-72,32.3-72,72c0,5.7,0.6,11.2,1.9,16.4c-59.9-3-112.9-31.7-148.4-75.2
		c-6.2,10.6-9.7,23-9.7,36.2c0,25,12.7,47,32,59.9c-11.8-0.4-22.9-3.6-32.6-9c0,0.3,0,0.6,0,0.9c0,34.9,24.8,64,57.8,70.6
		c-6,1.6-12.4,2.5-19,2.5c-4.7,0-9.2-0.5-13.6-1.3c9.2,28.6,35.8,49.4,67.2,50c-24.7,19.3-55.7,30.8-89.4,30.8
		c-5.8,0-11.5-0.4-17.2-1c31.8,20.4,69.7,32.4,110.4,32.4c132.4,0,204.9-109.7,204.9-204.9c0-3.1-0.1-6.2-0.2-9.3
		c14.1-10.2,26.3-22.8,35.9-37.3L431,147z"/>
</g>
</svg>
